<?xml version="1.0" standalone="no"?><!DOCTYPE svg PUBLIC "-//W3C//DTD SVG 1.1//EN" "http://www.w3.org/Graphics/SVG/1.1/DTD/svg11.dtd"><svg t="1566211115127" class="icon" viewBox="0 0 1024 1024" version="1.1" xmlns="http://www.w3.org/2000/svg" p-id="7923" xmlns:xlink="http://www.w3.org/1999/xlink" width="32" height="32"><defs><style type="text/css"></style></defs><path d="M901.884778 990.248292c-14.799054 0-28.716019-5.77554-39.183418-16.261359L690.573071 801.602817c-0.527003-0.668219-1.193175-1.471514-1.99647-2.336208l-16.146749-17.401322-20.756743 11.535731c-59.7048 33.174564-127.408785 50.708915-195.794291 50.708915-108.054995 0-209.642694-42.138726-286.047852-118.655424C93.41353 648.926556 51.330062 547.172057 51.330062 438.935937s42.084491-209.991642 118.501928-286.522666c76.407204-76.520791 177.99388-118.662587 286.046828-118.662587 108.054995 0 209.642694 42.141796 286.049898 118.662587 76.41539 76.530001 118.498858 178.285522 118.498858 286.522666 0 46.276976-7.782244 91.680049-23.133883 134.946458-14.801101 41.708937-36.317137 80.633459-63.952544 115.691929l-16.648169 21.12104 184.391591 184.64844c21.653159 21.671579 21.649066 56.951083-0.005117 78.646198C930.60796 984.473775 916.685879 990.248292 901.884778 990.248292zM455.894168 103.159498c-89.580225 0-173.793208 34.930557-237.127675 98.358145-63.323211 63.416332-98.195439 147.732669-98.195439 237.418294 0 89.685625 34.873252 174.002986 98.195439 237.416248 63.334467 63.422472 147.547451 98.352005 237.127675 98.352005 89.581248 0 173.796278-34.92851 237.132792-98.349959 63.329351-63.415308 98.205673-147.730623 98.205673-237.417271 0-89.684602-34.876322-174.000939-98.205673-237.419318C629.689423 138.090055 545.474392 103.159498 455.894168 103.159498z" p-id="7924" fill="#2c2c2c"></path></svg>