<?xml version="1.0" standalone="no"?><!DOCTYPE svg PUBLIC "-//W3C//DTD SVG 1.1//EN" "http://www.w3.org/Graphics/SVG/1.1/DTD/svg11.dtd"><svg t="1566470709927" class="icon" viewBox="0 0 1024 1024" version="1.1" xmlns="http://www.w3.org/2000/svg" p-id="9038" xmlns:xlink="http://www.w3.org/1999/xlink" width="32" height="32"><defs><style type="text/css"></style></defs><path d="M512 512m-512 0a512 512 0 1 0 1024 0 512 512 0 1 0-1024 0Z" fill="#B5332B" p-id="9039"></path><path d="M1024 512A512 512 0 0 0 512 0v1024a512 512 0 0 0 512-512z" fill="#A22D26" p-id="9040"></path><path d="M437.007059 641.084235h149.925647v164.382118H437.007059z" fill="#D9A78C" p-id="9041"></path><path d="M605.123765 739.087059s142.576941 20.841412 163.599059 42.767059c18.070588 19.094588 56.440471 201.968941 65.234823 242.145882H512v-277.082353z" fill="#C0D4DF" p-id="9042"></path><path d="M512 170.646588c72.824471 0 187.934118 41.381647 187.934118 235.339294 0 111.977412-36.502588 185.344-52.404706 205.643294-14.637176 18.672941-96.918588 58.428235-135.529412 58.428236z" fill="#EAC0A7" p-id="9043"></path><path d="M736.135529 452.246588c3.192471-30.960941-11.565176-58.488471-32.948705-61.44s-41.381647 19.817412-44.634353 50.778353 11.565176 58.488471 33.008941 61.44 41.381647-19.817412 44.574117-50.778353z" fill="#EAC0A7" p-id="9044"></path><path d="M512 170.646588c-72.824471 0-187.934118 41.381647-187.934118 235.339294 0 111.977412 36.502588 185.344 52.404706 205.643294 14.637176 18.672941 96.918588 58.428235 135.529412 58.428236z" fill="#F2D7BC" p-id="9045"></path><path d="M287.864471 452.246588c-3.192471-30.960941 11.565176-58.488471 32.948705-61.44s41.381647 19.817412 44.574118 50.778353-11.504941 58.368-32.948706 61.44-41.381647-19.817412-44.574117-50.778353z" fill="#F2D7BC" p-id="9046"></path><path d="M418.816 739.087059s-142.576941 20.841412-163.599059 42.767059C236.905412 801.129412 198.776471 983.883294 189.982118 1024H512v-277.082353z" fill="#CFE1EB" p-id="9047"></path><path d="M512 746.857412l-76.137412-30.659765-18.733176 19.034353 37.888 84.028235L512 746.857412zM512 746.857412l76.137412-30.659765 18.733176 19.034353-37.888 84.028235L512 746.857412z" fill="#FFFFFF" p-id="9048"></path><path d="M704.030118 395.384471S765.650824 114.447059 510.735059 114.447059c-256.301176 0-191.969882 273.227294-191.969883 273.227294s34.996706-20.239059 34.996706 69.571765h6.445177A1008.218353 1008.218353 0 0 0 376.410353 343.341176c90.352941 0 169.803294-11.565176 236.845176-66.981647 38.068706 0 43.248941 47.405176 43.248942 83.666824l-16.685177 6.445176s16.143059 31.563294 17.28753 90.895059H668.611765s-1.686588-99.026824 35.418353-61.982117z" fill="#8B5F3C" p-id="9049"></path><path d="M512 596.931765c33.912471 0 61.44-11.203765 61.44-25.057883H450.56c0 13.793882 27.527529 25.057882 61.44 25.057883z" fill="#FFFFFF" p-id="9050"></path></svg>