<?xml version="1.0" standalone="no"?><!DOCTYPE svg PUBLIC "-//W3C//DTD SVG 1.1//EN" "http://www.w3.org/Graphics/SVG/1.1/DTD/svg11.dtd"><svg t="1566540958655" class="icon" viewBox="0 0 1024 1024" version="1.1" xmlns="http://www.w3.org/2000/svg" p-id="2489" width="32" height="32" xmlns:xlink="http://www.w3.org/1999/xlink"><defs><style type="text/css"></style></defs><path d="M512 0a512 512 0 1 0 512 512A511.963688 511.963688 0 0 0 512 0z m-7.40766 121.354894a195.416965 195.416965 0 1 1-198.263829 195.358865 197.051007 197.051007 0 0 1 198.263829-195.358865z m330.730213 665.745248c0 72.406241-115.762837 72.406241-249.754326 72.406241H438.431773c-139.583546 0-249.82695 0-249.82695-72.406241v-14.452199c0-135.661844 112.131631-245.977872 249.82695-245.977872h147.136454c137.695319 0 249.754326 110.316028 249.754326 245.977872v14.452199z" fill="#25B5EB" p-id="2490"></path></svg>