<?xml version="1.0" standalone="no"?><!DOCTYPE svg PUBLIC "-//W3C//DTD SVG 1.1//EN" "http://www.w3.org/Graphics/SVG/1.1/DTD/svg11.dtd"><svg t="1566468017428" class="icon" viewBox="0 0 1024 1024" version="1.1" xmlns="http://www.w3.org/2000/svg" p-id="5596" xmlns:xlink="http://www.w3.org/1999/xlink" width="32" height="32"><defs><style type="text/css"></style></defs><path d="M512 5.12C231.936 5.12 5.12 231.936 5.12 512s226.816 506.88 506.88 506.88 506.88-226.816 506.88-506.88v-0.512C1018.88 231.936 792.064 5.12 512 5.12z m303.104 602.624L629.76 793.088c-24.064 24.064-64.512 24.064-88.576 0l-251.904-251.904c-24.064-24.064-45.568-72.704-45.568-107.52V285.696c0-34.816 29.184-64.512 64.512-64.512H455.68c34.816 0 83.456 21.504 107.52 45.568l252.416 251.904c24.064 24.576 24.064 65.024-0.512 89.088z" fill="#007BF8" p-id="5597"></path><path d="M391.168 304.64c-34.816 0-64.512 29.184-64.512 64.512 0 34.816 29.184 64.512 64.512 64.512 34.816 0 64.512-29.696 64.512-64.512s-29.696-64.512-64.512-64.512z" fill="#007BF8" p-id="5598"></path></svg>