<?xml version="1.0" standalone="no"?><!DOCTYPE svg PUBLIC "-//W3C//DTD SVG 1.1//EN" "http://www.w3.org/Graphics/SVG/1.1/DTD/svg11.dtd"><svg t="1566468065612" class="icon" viewBox="0 0 1025 1024" version="1.1" xmlns="http://www.w3.org/2000/svg" p-id="8237" xmlns:xlink="http://www.w3.org/1999/xlink" width="32.03125" height="32"><defs><style type="text/css"></style></defs><path d="M514.825891 546.167587c-71.931761 0-128.449574-57.031611-128.449574-128.449574s57.031611-128.449574 128.449574-128.449573c71.931761 0 128.449574 57.031611 128.449573 128.449573 0.513798 68.848971-59.086804 128.449574-128.449573 128.449574m86.831911 22.093326c51.893628-29.800301 88.887105-86.831912 88.887105-153.62569 0-96.594079-79.124937-175.719017-175.719016-175.719016S339.106874 318.554942 339.106874 415.149022c0 66.793778 36.993477 123.825389 91.456096 153.625689-88.887105 34.424486-151.056698 121.256397-151.056698 222.474662 0 12.331159 9.762168 24.662318 24.662318 24.662318 12.331159 0 24.662318-9.762168 24.662318-24.662318 0-106.356247 86.831912-193.188159 193.188159-193.188159 103.787255 0 190.619167 84.26292 193.188158 188.050176v2.568991c0 12.331159 9.762168 24.662318 24.662318 24.662318 12.331159 0 24.662318-9.762168 24.662319-24.662318-7.193176-99.163071-71.417963-185.481184-162.87406-220.419468" fill="#008DE8" p-id="8238"></path><path d="M896.064225 140.266934H131.532363c-36.993477 0-69.36277 32.369293-69.362769 69.36277v636.082288c0 36.993477 32.369293 69.36277 69.362769 69.36277h294.406423v-42.13146H146.432514c-22.093327 0-42.13146-20.038133-42.13146-42.131461v-606.281987c0-22.093327 20.038133-42.13146 42.13146-42.13146h734.73156c22.093327 0 42.13146 20.038133 42.13146 42.13146v603.712996c0 22.093327-20.038133 42.13146-42.13146 42.13146h-257.412945v42.13146h269.744104c36.993477 0 69.36277-32.369293 69.36277-69.362769V209.629704c2.568991-39.562469-29.800301-69.36277-66.793778-69.36277z" fill="#008DE8" p-id="8239"></path><path d="M403.845459 894.009032a21.06573 21.06573 0 1 0 42.13146 0 21.06573 21.06573 0 1 0-42.13146 0Z" fill="#008DE8" p-id="8240"></path><path d="M604.226794 891.44004a21.06573 21.06573 0 1 0 42.13146 0 21.06573 21.06573 0 1 0-42.13146 0Z" fill="#008DE8" p-id="8241"></path></svg>